.
..............................Site Info...........................

 -   http://www.scenetime.com  *_*   

SceneTime is going to Close sign up on march/1, hurry up! get in before the doors are closed.

     We care to share . Join us on  http://www.scenetime.com 

    Be the first to get new release at  http://www.scenetime.com

        Seed back for speed


...................................NFO:.................................................                                                                                                     
       
     
     
       
       
     
     
                                         
                                         
                EXVID                    
                                         
         
                                         
         Filled the Archives             
                                         
         
                                         
                With:                    
                                         
         
                                         
                                    
     E240                           
                                    
     SP               (C) 2009      
                                         
     
     
     
                                                                                  
                                                                                   
               Nothing.But.Trouble.1991.iNTERNAL.DVDRip.XviD-EXViDiNT               
                                                                                   
                                                                                  
     
                                                                                               
EXViD aims to iNTERNAL those releases which have been lost in the archives.
EXViD aims to PRE non-internal releases which have poor sources and are likely skipped by others. 
http://www.imdb.com/title/tt0102558/
Subtitles: EN, CS, DA, FI, DE, EL, NO, PL, PT, ES, SV
Date: 2012.02

Director: Dan Aykroyd

Genres: Adventure | Comedy

Plot:
A financier [Chevy Chase] meets a spurned lover [Demi Moore] and agrees to take her to a business
meeting. On the way there, they run a stop sign in a tiny town in the middle of nowhere. They are
arrested and taken to the local court. But all is not as it seems: the courthouse and the
"prison" are a maze of zany booby- traps and deadly contraptions. The antics of the captured
couple as they try to escape from the mad judge and his bizarre family make up the rest of this
unusual film.

Cast:
Chevy Chase	...	Chris Thorne
Dan Aykroyd	...	Judge Alvin 'J.P' Valkenheiser / Bobo
John Candy	...	Dennis
Demi Moore	...	Diane Lightson
Valri Bromfield	...	Miss Purdah
Taylor Negron	...	Fausto Squiriniszu
Bertila Damas	...	Renalda Squiriniszu
Raymond J. Barry	...	Mark
Brian Doyle-Murray	...	Brian
John Wesley	...	Sam
Peter Aykroyd	...	Mike the Doorman
Daniel Baldwin	...	Dealer #1 (Artie)
James Staszkiel	...	Dealer #2 (as James Staskel)
Deborah Lee Johnson	...	Dealer #1's Girlfriend
Karla Tamburrelli	...	Dealer #2's Girlfriend

Stats:
Format                                   : AVI
Format/Info                              : Audio Video Interleave
Format profile                           : OpenDML
File size                                : 1.36 GiB
Duration                                 : 1h 29mn
Overall bit rate                         : 2 179 Kbps

Video
ID                                       : 0
Format                                   : MPEG-4 Visual
Format profile                           : Advanced Simple@L5
Format settings, BVOP                    : 2
Format settings, QPel                    : No
Format settings, GMC                     : No warppoints
Format settings, Matrix                  : Default (MPEG)
Codec ID                                 : XVID
Codec ID/Hint                            : XviD
Duration                                 : 1h 29mn
Bit rate                                 : 1 981 Kbps
Width                                    : 640 pixels
Height                                   : 360 pixels
Display aspect ratio                     : 16:9
Frame rate                               : 25.000 fps
Color space                              : YUV
Chroma subsampling                       : 4:2:0
Bit depth                                : 8 bits
Scan type                                : Progressive
Compression mode                         : Lossy
Bits/(Pixel*Frame)                       : 0.344
Stream size                              : 1.24 GiB (91%)
Writing library                          : XviD 64

Audio
ID                                       : 1
Format                                   : AC-3
Format/Info                              : Audio Coding 3
Format profile                           : Dolby Digital
Mode extension                           : CM (complete main)
Codec ID                                 : 2000
Duration                                 : 1h 29mn
Bit rate mode                            : Constant
Bit rate                                 : 192 Kbps
Channel(s)                               : 2 channels
Channel positions                        : Front: L R
Sampling rate                            : 48.0 KHz
Bit depth                                : 16 bits
Compression mode                         : Lossy
Delay relative to video                  : 40ms
Stream size                              : 123 MiB (9%)
Alignment                                : Split accross interleaves
Interleave, duration                     : 500 ms (12.50 video frames)
Interleave, preload duration             : 500 ms



Release notes:
WS release with max resolution and AC3 sound.
Enjoy!

Looking for:
75TB+ Archives
DUTCH/FLEMiSH Archives
                                                                                                    
Greets: CRBS EPiSODE FiCO FLS iLS KLASSiGER LiPSYNC MADE NODLABS RUNNER SPRiNTER      
   

                                                                    ASCII DONE BY XX^NFO 2oo9     
 

RLS-Crc: 415243414445:42EECD90